<?xml version="1.0" encoding="utf-8"?>
<!-- Generator: Adobe Illustrator 20.1.0, SVG Export Plug-In . SVG Version: 6.00 Build 0)  -->
<svg version="1.1" id="Layer_1" xmlns="http://www.w3.org/2000/svg" xmlns:xlink="http://www.w3.org/1999/xlink" x="0px" y="0px"
	 viewBox="0 0 51 51" style="enable-background:new 0 0 51 51;" xml:space="preserve">
<style type="text/css">
	.st0{opacity:0.9;fill:#FFBB00;enable-background:new    ;}
</style>
<circle class="st0" cx="25.5" cy="25.5" r="24"/>
<polygon points="36.8,27.9 34.8,42.7 22.6,42.7 21.6,37.7 14.1,30.2 14.1,29.2 16,27.3 21.6,30.2 21.6,30.2 23.9,13.3 27.1,13.3 
	27.1,24.1 36.1,26.9 "/>
<polygon points="12.4,11.8 10.2,14.8 16.8,14.9 16.8,16.5 10.2,16.5 12.4,19.6 11.7,20.3 7.6,16 7.6,15.4 11.7,11.1 "/>
<polygon points="38.6,19.6 40.8,16.5 34.3,16.5 34.3,14.9 40.8,14.9 38.6,11.8 39.3,11.1 43.4,15.4 43.4,16 39.3,20.3 "/>
</svg>
