
<svg version="1.1" id="Layer_1" xmlns="http://www.w3.org/2000/svg" xmlns:xlink="http://www.w3.org/1999/xlink" x="0px" y="0px"
	 viewBox="0 0 51 51" style="enable-background:new 0 0 51 51;" xml:space="preserve">
<style type="text/css">
	.st0{opacity:0.9;fill:#ffbb00;}
	
	@keyframes flickerAnimation {
	  0%   { opacity:1; }
	  50%  { opacity:0.85; }
	  100% { opacity:1; }
	}
	@-o-keyframes flickerAnimation{
	  0%   { opacity:1; }
	  50%  { opacity:0.85; }
	  100% { opacity:1; }
	}
	@-moz-keyframes flickerAnimation{
	  0%   { opacity:1; }
	  50%  { opacity:0.85; }
	  100% { opacity:1; }
	}
	@-webkit-keyframes flickerAnimation{
	  0%   { opacity:1; }
	  50%  { opacity:0.85; }
	  100% { opacity:1; }
	}

	.animate-flicker {
	   -webkit-animation: flickerAnimation 4s 3;
	   -moz-animation: flickerAnimation 4s 3;
	   -o-animation: flickerAnimation 4s 3;
	    animation: flickerAnimation 4s 3;
	}


	@-webkit-keyframes handAni {
	    	0%   { transform: translateX(0); } 
	    25%  { transform: translateX(7px); }
	    50%  { transform: translateX(0); }
	    75%  { transform: translateX(-4px); }	
	    100% { transform: translateX(0); }
	}

	@keyframes handAni {
	   	0%   { transform: translateX(0); } 
	    25%  { transform: translateX(7px); }
	    50%  { transform: translateX(0); }
	    75%  { transform: translateX(-4px); }	
	    100% { transform: translateX(0); }
	}

	@-o-keyframes handAni{
	 		0%   { transform: translateX(0); } 
	    25%  { transform: translateX(7px); }
	    50%  { transform: translateX(0); }
	    75%  { transform: translateX(-4px); }	
	    100% { transform: translateX(0); }
	}

	@-moz-keyframes handAni{
	  	0%   { transform: translateX(0); } 
	    25%  { transform: translateX(7px); }
	    50%  { transform: translateX(0); }
	    75%  { transform: translateX(-4px); }	
	    100% { transform: translateX(0); }
	}

	.swipe-hand{ 
		-webkit-animation: handAni 4s 2;
	   -moz-animation: handAni 4s 2;
	   -o-animation: handAni 4s 2;
	    animation: handAni 4s 2;
	    fill:#000;
	}


	
</style>
<circle class="st0 animate-flicker" cx="25.5" cy="25.5" r="24"/>

<polygon points="12.1,10.9 10.6,13.1 15.2,13.1 15.2,14.3 10.6,14.3 12.1,16.5 11.6,17 8.7,13.9 8.7,13.5 11.6,10.4 "/>
<polygon points="38.8,16.5 40.4,14.3 35.7,14.3 35.8,13.1 40.4,13.1 38.8,10.9 39.4,10.4 42.3,13.5 42.3,13.9 39.4,17 "/>
<polygon  class="swipe-hand"  points="35,27.9 32.9,42.7 20.8,42.7 19.8,37.7 12.3,30.2 12.3,29.2 14.2,27.3 19.8,30.2 19.8,30.2 22,13.3 25.3,13.3 
	25.3,24.1 34.3,26.9 "/>

</svg>
